<svg xmlns="http://www.w3.org/2000/svg" viewBox="0 0 760 450" width="760" height="450" role="img" aria-label="Steps to commit — in_band">
<style>
  .t { font: 600 15px system-ui, -apple-system, 'Segoe UI', sans-serif; fill: #7f8c88; }
  .s { font: 400 12px system-ui, -apple-system, 'Segoe UI', sans-serif; fill: #898781; }
  .ax { font: 400 11px system-ui, -apple-system, 'Segoe UI', sans-serif; fill: #898781; font-variant-numeric: tabular-nums; }
  .lg { font: 400 12px system-ui, -apple-system, 'Segoe UI', sans-serif; fill: #898781; }
  .grid { stroke: #898781; stroke-opacity: 0.22; stroke-width: 1; }
  .axis { stroke: #898781; stroke-opacity: 0.45; stroke-width: 1; }
  .line { fill: none; stroke-width: 2; stroke-linejoin: round; stroke-linecap: round; }
  @keyframes draw { to { stroke-dashoffset: 0; } }
  @keyframes appear { to { opacity: 1; } }
  @media (prefers-reduced-motion: reduce) {
    .anim { animation: none !important; stroke-dashoffset: 0 !important; opacity: 1 !important; }
  }
</style>
<text x="56" y="22" class="t">Steps to commit — in_band</text>
<text x="56" y="37" class="s">40 samples (rows) × canvas positions (columns); cells appear in the order the model committed them</text>
<rect x="266" y="86" width="13" height="8" fill="#0d366b" class="anim" opacity="0" style="animation: appear 0.3s ease-out 1.80s forwards"/>
<text x="63.0" y="426" text-anchor="middle" class="ax">0</text>
<text x="98.0" y="426" text-anchor="middle" class="ax">2.5</text>
<text x="133.0" y="426" text-anchor="middle" class="ax">5</text>
<text x="168.0" y="426" text-anchor="middle" class="ax">7.5</text>
<text x="203.0" y="426" text-anchor="middle" class="ax">10</text>
<text x="238.0" y="426" text-anchor="middle" class="ax">12.5</text>
<text x="273.0" y="426" text-anchor="middle" class="ax">15</text>
<text x="48" y="58.5" text-anchor="end" class="ax">0</text>
<text x="48" y="148.5" text-anchor="end" class="ax">10</text>
<text x="48" y="238.5" text-anchor="end" class="ax">20</text>
<text x="48" y="328.5" text-anchor="end" class="ax">30</text>
<text x="396.0" y="444" text-anchor="middle" class="s">canvas position</text>
<text transform="translate(14 230.0) rotate(-90)" text-anchor="middle" class="s">sample</text>
<rect x="600" y="14" width="10" height="8" fill="#86b6ef"/>
<rect x="610" y="14" width="10" height="8" fill="#6da7ec"/>
<rect x="620" y="14" width="10" height="8" fill="#5598e7"/>
<rect x="630" y="14" width="10" height="8" fill="#3987e5"/>
<rect x="640" y="14" width="10" height="8" fill="#2a78d6"/>
<rect x="650" y="14" width="10" height="8" fill="#256abf"/>
<rect x="660" y="14" width="10" height="8" fill="#1c5cab"/>
<rect x="670" y="14" width="10" height="8" fill="#184f95"/>
<rect x="680" y="14" width="10" height="8" fill="#104281"/>
<rect x="690" y="14" width="10" height="8" fill="#0d366b"/>
<text x="594" y="22" text-anchor="end" class="ax">early</text>
<text x="706" y="22" class="ax">late</text>
</svg>
